<mxfile host="Electron" modified="2024-04-18T16:43:41.028Z" agent="Mozilla/5.0 (Windows NT 10.0; Win64; x64) AppleWebKit/537.36 (KHTML, like Gecko) draw.io/23.1.5 Chrome/120.0.6099.109 Electron/28.1.0 Safari/537.36" etag="HQxqW0-3_HO9mj4oug8r" version="23.1.5" type="device">
  <diagram id="-6H5wynXqOOyBtFPYk5a" name="Page-1">
    <mxGraphModel dx="2060" dy="1990" grid="1" gridSize="10" guides="1" tooltips="1" connect="1" arrows="1" fold="1" page="0" pageScale="1" pageWidth="1100" pageHeight="850" math="0" shadow="0">
      <root>
        <mxCell id="0" />
        <mxCell id="1" parent="0" />
        <mxCell id="f7I9c9mgRk5Hl_R-Q4D1-96" value="" style="whiteSpace=wrap;html=1;strokeColor=#6c8ebf;fillColor=#8A9FBF;strokeWidth=2;" parent="1" vertex="1">
          <mxGeometry x="520" y="800" width="200" height="10" as="geometry" />
        </mxCell>
        <mxCell id="f7I9c9mgRk5Hl_R-Q4D1-17" value="" style="whiteSpace=wrap;html=1;fillColor=#dae8fc;strokeColor=#6c8ebf;strokeWidth=2;" parent="1" vertex="1">
          <mxGeometry x="400" y="320" width="320" height="10" as="geometry" />
        </mxCell>
        <mxCell id="f7I9c9mgRk5Hl_R-Q4D1-9" value="" style="whiteSpace=wrap;html=1;fillColor=#dae8fc;strokeColor=#6c8ebf;strokeWidth=2;" parent="1" vertex="1">
          <mxGeometry x="280" y="440" width="320" height="10" as="geometry" />
        </mxCell>
        <mxCell id="f7I9c9mgRk5Hl_R-Q4D1-16" value="" style="whiteSpace=wrap;html=1;fillColor=#dae8fc;strokeColor=#6c8ebf;strokeWidth=2;" parent="1" vertex="1">
          <mxGeometry x="400" y="560" width="320" height="10" as="geometry" />
        </mxCell>
        <mxCell id="f7I9c9mgRk5Hl_R-Q4D1-52" value="" style="whiteSpace=wrap;html=1;fillColor=#dae8fc;strokeColor=#6c8ebf;strokeWidth=2;" parent="1" vertex="1">
          <mxGeometry x="400" y="-160" width="200" height="10" as="geometry" />
        </mxCell>
        <mxCell id="f7I9c9mgRk5Hl_R-Q4D1-53" value="" style="whiteSpace=wrap;html=1;fillColor=#dae8fc;strokeColor=#6c8ebf;strokeWidth=2;" parent="1" vertex="1">
          <mxGeometry x="280" y="-40" width="200" height="10" as="geometry" />
        </mxCell>
        <mxCell id="f7I9c9mgRk5Hl_R-Q4D1-63" value="" style="whiteSpace=wrap;html=1;fillColor=#dae8fc;strokeColor=#6c8ebf;strokeWidth=2;" parent="1" vertex="1">
          <mxGeometry x="400" y="80" width="200" height="10" as="geometry" />
        </mxCell>
        <mxCell id="f7I9c9mgRk5Hl_R-Q4D1-74" value="" style="whiteSpace=wrap;html=1;fillColor=#dae8fc;strokeColor=#6c8ebf;strokeWidth=2;" parent="1" vertex="1">
          <mxGeometry x="400" y="800" width="120" height="10" as="geometry" />
        </mxCell>
        <mxCell id="f7I9c9mgRk5Hl_R-Q4D1-75" value="" style="whiteSpace=wrap;html=1;fillColor=#dae8fc;strokeColor=#6c8ebf;strokeWidth=2;" parent="1" vertex="1">
          <mxGeometry x="280" y="920" width="120" height="10" as="geometry" />
        </mxCell>
        <mxCell id="f7I9c9mgRk5Hl_R-Q4D1-85" value="" style="whiteSpace=wrap;html=1;fillColor=#dae8fc;strokeColor=#6c8ebf;strokeWidth=2;" parent="1" vertex="1">
          <mxGeometry x="400" y="1040" width="120" height="10" as="geometry" />
        </mxCell>
        <mxCell id="f7I9c9mgRk5Hl_R-Q4D1-99" value="" style="whiteSpace=wrap;html=1;strokeColor=#6c8ebf;fillColor=#8A9FBF;strokeWidth=2;" parent="1" vertex="1">
          <mxGeometry x="400" y="920" width="200" height="10" as="geometry" />
        </mxCell>
        <mxCell id="f7I9c9mgRk5Hl_R-Q4D1-100" value="" style="whiteSpace=wrap;html=1;strokeColor=#6c8ebf;fillColor=#8A9FBF;strokeWidth=2;" parent="1" vertex="1">
          <mxGeometry x="520" y="1040" width="200" height="10" as="geometry" />
        </mxCell>
        <mxCell id="f7I9c9mgRk5Hl_R-Q4D1-101" value="" style="whiteSpace=wrap;html=1;strokeColor=#6c8ebf;fillColor=#8A9FBF;strokeWidth=2;" parent="1" vertex="1">
          <mxGeometry x="720" y="560" width="200" height="10" as="geometry" />
        </mxCell>
        <mxCell id="f7I9c9mgRk5Hl_R-Q4D1-102" value="" style="whiteSpace=wrap;html=1;strokeColor=#6c8ebf;fillColor=#8A9FBF;strokeWidth=2;" parent="1" vertex="1">
          <mxGeometry x="600" y="440" width="200" height="10" as="geometry" />
        </mxCell>
        <mxCell id="f7I9c9mgRk5Hl_R-Q4D1-103" value="" style="whiteSpace=wrap;html=1;strokeColor=#6c8ebf;fillColor=#8A9FBF;strokeWidth=2;" parent="1" vertex="1">
          <mxGeometry x="720" y="320" width="200" height="10" as="geometry" />
        </mxCell>
        <mxCell id="f7I9c9mgRk5Hl_R-Q4D1-104" value="" style="whiteSpace=wrap;html=1;strokeColor=#6c8ebf;fillColor=#8A9FBF;strokeWidth=2;" parent="1" vertex="1">
          <mxGeometry x="600" y="80" width="200" height="10" as="geometry" />
        </mxCell>
        <mxCell id="f7I9c9mgRk5Hl_R-Q4D1-105" value="" style="whiteSpace=wrap;html=1;strokeColor=#6c8ebf;fillColor=#8A9FBF;strokeWidth=2;" parent="1" vertex="1">
          <mxGeometry x="480" y="-40" width="200" height="10" as="geometry" />
        </mxCell>
        <mxCell id="f7I9c9mgRk5Hl_R-Q4D1-106" value="" style="whiteSpace=wrap;html=1;strokeColor=#6c8ebf;fillColor=#8A9FBF;strokeWidth=2;" parent="1" vertex="1">
          <mxGeometry x="600" y="-160" width="200" height="10" as="geometry" />
        </mxCell>
        <mxCell id="f7I9c9mgRk5Hl_R-Q4D1-117" value="" style="endArrow=none;html=1;exitX=0.875;exitY=0.5;exitDx=0;exitDy=0;exitPerimeter=0;strokeWidth=2;" parent="1" edge="1">
          <mxGeometry width="50" height="50" relative="1" as="geometry">
            <mxPoint x="92.5" y="-601" as="sourcePoint" />
            <mxPoint x="1035" y="-601" as="targetPoint" />
          </mxGeometry>
        </mxCell>
        <mxCell id="f7I9c9mgRk5Hl_R-Q4D1-118" value="" style="endArrow=none;html=1;exitX=0.875;exitY=0.5;exitDx=0;exitDy=0;exitPerimeter=0;strokeWidth=2;" parent="1" edge="1">
          <mxGeometry width="50" height="50" relative="1" as="geometry">
            <mxPoint x="87.5" y="-480.5" as="sourcePoint" />
            <mxPoint x="1030" y="-480.5" as="targetPoint" />
          </mxGeometry>
        </mxCell>
        <mxCell id="f7I9c9mgRk5Hl_R-Q4D1-123" value="" style="whiteSpace=wrap;html=1;fillColor=#dae8fc;strokeColor=#6c8ebf;strokeWidth=2;" parent="1" vertex="1">
          <mxGeometry x="400" y="-360" width="200" height="10" as="geometry" />
        </mxCell>
        <mxCell id="f7I9c9mgRk5Hl_R-Q4D1-134" value="" style="whiteSpace=wrap;html=1;strokeColor=#6c8ebf;fillColor=#8A9FBF;strokeWidth=2;" parent="1" vertex="1">
          <mxGeometry x="600" y="-360" width="200" height="10" as="geometry" />
        </mxCell>
        <mxCell id="f7I9c9mgRk5Hl_R-Q4D1-135" value="" style="whiteSpace=wrap;html=1;strokeColor=#6c8ebf;fillColor=#8A9FBF;strokeWidth=2;" parent="1" vertex="1">
          <mxGeometry x="480" y="-480" width="200" height="10" as="geometry" />
        </mxCell>
        <mxCell id="f7I9c9mgRk5Hl_R-Q4D1-136" value="" style="whiteSpace=wrap;html=1;strokeColor=#6c8ebf;fillColor=#8A9FBF;strokeWidth=2;" parent="1" vertex="1">
          <mxGeometry x="600" y="-600" width="200" height="10" as="geometry" />
        </mxCell>
        <mxCell id="f7I9c9mgRk5Hl_R-Q4D1-149" value="" style="whiteSpace=wrap;html=1;fillColor=#dae8fc;strokeColor=#6c8ebf;strokeWidth=2;" parent="1" vertex="1">
          <mxGeometry x="400" y="1670" width="120" height="10" as="geometry" />
        </mxCell>
        <mxCell id="f7I9c9mgRk5Hl_R-Q4D1-161" value="" style="whiteSpace=wrap;html=1;strokeColor=#6c8ebf;fillColor=#8A9FBF;strokeWidth=2;" parent="1" vertex="1">
          <mxGeometry x="520" y="1670" width="200" height="10" as="geometry" />
        </mxCell>
        <mxCell id="f7I9c9mgRk5Hl_R-Q4D1-160" value="" style="whiteSpace=wrap;html=1;strokeColor=#6c8ebf;fillColor=#8A9FBF;strokeWidth=2;" parent="1" vertex="1">
          <mxGeometry x="400" y="1550" width="200" height="10" as="geometry" />
        </mxCell>
        <mxCell id="LO3xSl4bQVELb0Q1iKYm-1" value="&lt;div&gt;Client 1&lt;/div&gt;" style="shape=umlActor;verticalLabelPosition=bottom;verticalAlign=top;html=1;outlineConnect=0;strokeWidth=2;" parent="1" vertex="1">
          <mxGeometry x="42.5" y="290" width="30" height="60" as="geometry" />
        </mxCell>
        <mxCell id="LO3xSl4bQVELb0Q1iKYm-2" value="&lt;div&gt;Client 2&lt;/div&gt;" style="shape=umlActor;verticalLabelPosition=bottom;verticalAlign=top;html=1;outlineConnect=0;strokeWidth=2;" parent="1" vertex="1">
          <mxGeometry x="42.5" y="530" width="30" height="60" as="geometry" />
        </mxCell>
        <mxCell id="LO3xSl4bQVELb0Q1iKYm-4" value="Service" style="ellipse;shape=cloud;whiteSpace=wrap;html=1;strokeWidth=2;" parent="1" vertex="1">
          <mxGeometry x="20" y="410" width="70" height="60" as="geometry" />
        </mxCell>
        <mxCell id="LO3xSl4bQVELb0Q1iKYm-9" value="" style="endArrow=none;html=1;exitX=0.875;exitY=0.5;exitDx=0;exitDy=0;exitPerimeter=0;strokeWidth=2;" parent="1" edge="1">
          <mxGeometry width="50" height="50" relative="1" as="geometry">
            <mxPoint x="92.5" y="319" as="sourcePoint" />
            <mxPoint x="1035" y="319" as="targetPoint" />
          </mxGeometry>
        </mxCell>
        <mxCell id="LO3xSl4bQVELb0Q1iKYm-10" value="" style="endArrow=none;html=1;exitX=0.875;exitY=0.5;exitDx=0;exitDy=0;exitPerimeter=0;strokeWidth=2;" parent="1" edge="1">
          <mxGeometry width="50" height="50" relative="1" as="geometry">
            <mxPoint x="87.5" y="439.5" as="sourcePoint" />
            <mxPoint x="1030" y="439.5" as="targetPoint" />
          </mxGeometry>
        </mxCell>
        <mxCell id="LO3xSl4bQVELb0Q1iKYm-13" value="Delete" style="shape=callout;whiteSpace=wrap;html=1;perimeter=calloutPerimeter;size=20;position=0.5;base=10;strokeWidth=2;fillColor=#dae8fc;strokeColor=#6c8ebf;" parent="1" vertex="1">
          <mxGeometry x="120" y="280" width="80" height="40" as="geometry" />
        </mxCell>
        <mxCell id="LO3xSl4bQVELb0Q1iKYm-21" value="" style="endArrow=none;html=1;exitX=0.875;exitY=0.5;exitDx=0;exitDy=0;exitPerimeter=0;strokeWidth=2;" parent="1" edge="1">
          <mxGeometry width="50" height="50" relative="1" as="geometry">
            <mxPoint x="87.5" y="559.5" as="sourcePoint" />
            <mxPoint x="1030" y="559.5" as="targetPoint" />
          </mxGeometry>
        </mxCell>
        <mxCell id="f7I9c9mgRk5Hl_R-Q4D1-1" value="" style="shape=callout;whiteSpace=wrap;html=1;perimeter=calloutPerimeter;size=20;position=0.5;base=10;strokeWidth=2;rotation=-180;flipH=1;fillColor=#d5e8d4;strokeColor=#82b366;" parent="1" vertex="1">
          <mxGeometry x="200" y="560" width="80" height="40" as="geometry" />
        </mxCell>
        <mxCell id="f7I9c9mgRk5Hl_R-Q4D1-3" value="Edit" style="text;html=1;align=center;verticalAlign=middle;resizable=0;points=[];autosize=1;strokeWidth=2;" parent="1" vertex="1">
          <mxGeometry x="220" y="580" width="40" height="20" as="geometry" />
        </mxCell>
        <mxCell id="f7I9c9mgRk5Hl_R-Q4D1-37" value="Undo" style="shape=callout;whiteSpace=wrap;html=1;perimeter=calloutPerimeter;size=20;position=0.5;base=10;strokeWidth=2;fillColor=#ffe6cc;strokeColor=#d79b00;" parent="1" vertex="1">
          <mxGeometry x="400" y="280" width="80" height="40" as="geometry" />
        </mxCell>
        <mxCell id="f7I9c9mgRk5Hl_R-Q4D1-38" value="" style="endArrow=classic;html=1;exitX=0;exitY=0;exitDx=40;exitDy=40;exitPerimeter=0;fillColor=#ffe6cc;strokeColor=#d79b00;strokeWidth=2;" parent="1" edge="1">
          <mxGeometry width="50" height="50" relative="1" as="geometry">
            <mxPoint x="440" y="320" as="sourcePoint" />
            <mxPoint x="560" y="440" as="targetPoint" />
          </mxGeometry>
        </mxCell>
        <mxCell id="f7I9c9mgRk5Hl_R-Q4D1-40" value="" style="endArrow=classic;html=1;fillColor=#ffe6cc;strokeColor=#d79b00;strokeWidth=2;" parent="1" edge="1">
          <mxGeometry width="50" height="50" relative="1" as="geometry">
            <mxPoint x="560" y="440" as="sourcePoint" />
            <mxPoint x="680" y="320" as="targetPoint" />
          </mxGeometry>
        </mxCell>
        <mxCell id="f7I9c9mgRk5Hl_R-Q4D1-41" value="" style="endArrow=classic;html=1;exitX=0;exitY=0;exitDx=40;exitDy=40;exitPerimeter=0;fillColor=#ffe6cc;strokeColor=#d79b00;strokeWidth=2;" parent="1" edge="1">
          <mxGeometry width="50" height="50" relative="1" as="geometry">
            <mxPoint x="560" y="440" as="sourcePoint" />
            <mxPoint x="680" y="560" as="targetPoint" />
          </mxGeometry>
        </mxCell>
        <mxCell id="f7I9c9mgRk5Hl_R-Q4D1-42" value="" style="endArrow=classic;html=1;exitX=0;exitY=0;exitDx=40;exitDy=40;exitPerimeter=0;fillColor=#dae8fc;strokeColor=#6c8ebf;strokeWidth=2;" parent="1" edge="1">
          <mxGeometry width="50" height="50" relative="1" as="geometry">
            <mxPoint x="160" y="320" as="sourcePoint" />
            <mxPoint x="280" y="440" as="targetPoint" />
          </mxGeometry>
        </mxCell>
        <mxCell id="f7I9c9mgRk5Hl_R-Q4D1-43" value="" style="endArrow=classic;html=1;fillColor=#dae8fc;strokeColor=#6c8ebf;strokeWidth=2;" parent="1" edge="1">
          <mxGeometry width="50" height="50" relative="1" as="geometry">
            <mxPoint x="280" y="440" as="sourcePoint" />
            <mxPoint x="400" y="320" as="targetPoint" />
          </mxGeometry>
        </mxCell>
        <mxCell id="f7I9c9mgRk5Hl_R-Q4D1-44" value="" style="endArrow=classic;html=1;exitX=0;exitY=0;exitDx=40;exitDy=40;exitPerimeter=0;fillColor=#dae8fc;strokeColor=#6c8ebf;strokeWidth=2;" parent="1" edge="1">
          <mxGeometry width="50" height="50" relative="1" as="geometry">
            <mxPoint x="280" y="440" as="sourcePoint" />
            <mxPoint x="400" y="560" as="targetPoint" />
          </mxGeometry>
        </mxCell>
        <mxCell id="f7I9c9mgRk5Hl_R-Q4D1-49" value="" style="endArrow=classic;html=1;fillColor=#d5e8d4;strokeColor=#82b366;strokeWidth=2;" parent="1" edge="1">
          <mxGeometry width="50" height="50" relative="1" as="geometry">
            <mxPoint x="240" y="560" as="sourcePoint" />
            <mxPoint x="360" y="440" as="targetPoint" />
          </mxGeometry>
        </mxCell>
        <mxCell id="f7I9c9mgRk5Hl_R-Q4D1-50" value="" style="endArrow=classic;html=1;fillColor=#d5e8d4;strokeColor=#82b366;strokeWidth=2;" parent="1" edge="1">
          <mxGeometry width="50" height="50" relative="1" as="geometry">
            <mxPoint x="360" y="440" as="sourcePoint" />
            <mxPoint x="480" y="320" as="targetPoint" />
          </mxGeometry>
        </mxCell>
        <mxCell id="f7I9c9mgRk5Hl_R-Q4D1-51" value="" style="endArrow=classic;html=1;exitX=0;exitY=0;exitDx=40;exitDy=40;exitPerimeter=0;fillColor=#d5e8d4;strokeColor=#82b366;strokeWidth=2;" parent="1" edge="1">
          <mxGeometry width="50" height="50" relative="1" as="geometry">
            <mxPoint x="360" y="440" as="sourcePoint" />
            <mxPoint x="480" y="560" as="targetPoint" />
          </mxGeometry>
        </mxCell>
        <mxCell id="f7I9c9mgRk5Hl_R-Q4D1-54" value="&lt;div&gt;Client 1&lt;/div&gt;" style="shape=umlActor;verticalLabelPosition=bottom;verticalAlign=top;html=1;outlineConnect=0;strokeWidth=2;" parent="1" vertex="1">
          <mxGeometry x="42.5" y="-190" width="30" height="60" as="geometry" />
        </mxCell>
        <mxCell id="f7I9c9mgRk5Hl_R-Q4D1-55" value="&lt;div&gt;Client 2&lt;/div&gt;" style="shape=umlActor;verticalLabelPosition=bottom;verticalAlign=top;html=1;outlineConnect=0;strokeWidth=2;" parent="1" vertex="1">
          <mxGeometry x="42.5" y="50" width="30" height="60" as="geometry" />
        </mxCell>
        <mxCell id="f7I9c9mgRk5Hl_R-Q4D1-56" value="Service" style="ellipse;shape=cloud;whiteSpace=wrap;html=1;strokeWidth=2;" parent="1" vertex="1">
          <mxGeometry x="20" y="-70" width="70" height="60" as="geometry" />
        </mxCell>
        <mxCell id="f7I9c9mgRk5Hl_R-Q4D1-57" value="" style="endArrow=none;html=1;exitX=0.875;exitY=0.5;exitDx=0;exitDy=0;exitPerimeter=0;strokeWidth=2;" parent="1" edge="1">
          <mxGeometry width="50" height="50" relative="1" as="geometry">
            <mxPoint x="92.5" y="-161" as="sourcePoint" />
            <mxPoint x="1035" y="-161" as="targetPoint" />
          </mxGeometry>
        </mxCell>
        <mxCell id="f7I9c9mgRk5Hl_R-Q4D1-58" value="" style="endArrow=none;html=1;exitX=0.875;exitY=0.5;exitDx=0;exitDy=0;exitPerimeter=0;strokeWidth=2;" parent="1" edge="1">
          <mxGeometry width="50" height="50" relative="1" as="geometry">
            <mxPoint x="87.5" y="-40.50000000000023" as="sourcePoint" />
            <mxPoint x="1030" y="-40.50000000000023" as="targetPoint" />
          </mxGeometry>
        </mxCell>
        <mxCell id="f7I9c9mgRk5Hl_R-Q4D1-59" value="Delete" style="shape=callout;whiteSpace=wrap;html=1;perimeter=calloutPerimeter;size=20;position=0.5;base=10;strokeWidth=2;fillColor=#dae8fc;strokeColor=#6c8ebf;" parent="1" vertex="1">
          <mxGeometry x="120" y="-200" width="80" height="40" as="geometry" />
        </mxCell>
        <mxCell id="f7I9c9mgRk5Hl_R-Q4D1-60" value="" style="endArrow=none;html=1;exitX=0.875;exitY=0.5;exitDx=0;exitDy=0;exitPerimeter=0;strokeWidth=2;" parent="1" edge="1">
          <mxGeometry width="50" height="50" relative="1" as="geometry">
            <mxPoint x="87.5" y="79.49999999999977" as="sourcePoint" />
            <mxPoint x="1030" y="79.49999999999977" as="targetPoint" />
          </mxGeometry>
        </mxCell>
        <mxCell id="f7I9c9mgRk5Hl_R-Q4D1-61" value="" style="shape=callout;whiteSpace=wrap;html=1;perimeter=calloutPerimeter;size=20;position=0.5;base=10;strokeWidth=2;rotation=-180;flipH=1;fillColor=#d5e8d4;strokeColor=#82b366;" parent="1" vertex="1">
          <mxGeometry x="200" y="80" width="80" height="40" as="geometry" />
        </mxCell>
        <mxCell id="f7I9c9mgRk5Hl_R-Q4D1-62" value="Edit" style="text;html=1;align=center;verticalAlign=middle;resizable=0;points=[];autosize=1;strokeWidth=2;" parent="1" vertex="1">
          <mxGeometry x="220" y="100" width="40" height="20" as="geometry" />
        </mxCell>
        <mxCell id="f7I9c9mgRk5Hl_R-Q4D1-64" value="Undo" style="shape=callout;whiteSpace=wrap;html=1;perimeter=calloutPerimeter;size=20;position=0.5;base=10;strokeWidth=2;fillColor=#ffe6cc;strokeColor=#d79b00;" parent="1" vertex="1">
          <mxGeometry x="280" y="-200" width="80" height="40" as="geometry" />
        </mxCell>
        <mxCell id="f7I9c9mgRk5Hl_R-Q4D1-65" value="" style="endArrow=classic;html=1;exitX=0;exitY=0;exitDx=40;exitDy=40;exitPerimeter=0;fillColor=#ffe6cc;strokeColor=#d79b00;strokeWidth=2;" parent="1" edge="1">
          <mxGeometry width="50" height="50" relative="1" as="geometry">
            <mxPoint x="320" y="-160" as="sourcePoint" />
            <mxPoint x="440" y="-40" as="targetPoint" />
          </mxGeometry>
        </mxCell>
        <mxCell id="f7I9c9mgRk5Hl_R-Q4D1-66" value="" style="endArrow=classic;html=1;fillColor=#ffe6cc;strokeColor=#d79b00;strokeWidth=2;" parent="1" edge="1">
          <mxGeometry width="50" height="50" relative="1" as="geometry">
            <mxPoint x="440" y="-40" as="sourcePoint" />
            <mxPoint x="560" y="-160" as="targetPoint" />
          </mxGeometry>
        </mxCell>
        <mxCell id="f7I9c9mgRk5Hl_R-Q4D1-67" value="" style="endArrow=classic;html=1;exitX=0;exitY=0;exitDx=40;exitDy=40;exitPerimeter=0;fillColor=#ffe6cc;strokeColor=#d79b00;strokeWidth=2;" parent="1" edge="1">
          <mxGeometry width="50" height="50" relative="1" as="geometry">
            <mxPoint x="440" y="-40" as="sourcePoint" />
            <mxPoint x="560" y="80" as="targetPoint" />
          </mxGeometry>
        </mxCell>
        <mxCell id="f7I9c9mgRk5Hl_R-Q4D1-68" value="" style="endArrow=classic;html=1;exitX=0;exitY=0;exitDx=40;exitDy=40;exitPerimeter=0;fillColor=#dae8fc;strokeColor=#6c8ebf;strokeWidth=2;" parent="1" edge="1">
          <mxGeometry width="50" height="50" relative="1" as="geometry">
            <mxPoint x="160" y="-160" as="sourcePoint" />
            <mxPoint x="280" y="-40" as="targetPoint" />
          </mxGeometry>
        </mxCell>
        <mxCell id="f7I9c9mgRk5Hl_R-Q4D1-69" value="" style="endArrow=classic;html=1;fillColor=#dae8fc;strokeColor=#6c8ebf;strokeWidth=2;" parent="1" edge="1">
          <mxGeometry width="50" height="50" relative="1" as="geometry">
            <mxPoint x="280" y="-40" as="sourcePoint" />
            <mxPoint x="400" y="-160" as="targetPoint" />
          </mxGeometry>
        </mxCell>
        <mxCell id="f7I9c9mgRk5Hl_R-Q4D1-70" value="" style="endArrow=classic;html=1;exitX=0;exitY=0;exitDx=40;exitDy=40;exitPerimeter=0;fillColor=#dae8fc;strokeColor=#6c8ebf;strokeWidth=2;" parent="1" edge="1">
          <mxGeometry width="50" height="50" relative="1" as="geometry">
            <mxPoint x="280" y="-40" as="sourcePoint" />
            <mxPoint x="400" y="80" as="targetPoint" />
          </mxGeometry>
        </mxCell>
        <mxCell id="f7I9c9mgRk5Hl_R-Q4D1-71" value="" style="endArrow=classic;html=1;fillColor=#d5e8d4;strokeColor=#82b366;strokeWidth=2;" parent="1" edge="1">
          <mxGeometry width="50" height="50" relative="1" as="geometry">
            <mxPoint x="240" y="80" as="sourcePoint" />
            <mxPoint x="360" y="-40" as="targetPoint" />
          </mxGeometry>
        </mxCell>
        <mxCell id="f7I9c9mgRk5Hl_R-Q4D1-72" value="" style="endArrow=classic;html=1;fillColor=#d5e8d4;strokeColor=#82b366;strokeWidth=2;" parent="1" edge="1">
          <mxGeometry width="50" height="50" relative="1" as="geometry">
            <mxPoint x="360" y="-40" as="sourcePoint" />
            <mxPoint x="480" y="-160" as="targetPoint" />
          </mxGeometry>
        </mxCell>
        <mxCell id="f7I9c9mgRk5Hl_R-Q4D1-73" value="" style="endArrow=classic;html=1;exitX=0;exitY=0;exitDx=40;exitDy=40;exitPerimeter=0;fillColor=#d5e8d4;strokeColor=#82b366;strokeWidth=2;" parent="1" edge="1">
          <mxGeometry width="50" height="50" relative="1" as="geometry">
            <mxPoint x="360" y="-40" as="sourcePoint" />
            <mxPoint x="480" y="80" as="targetPoint" />
          </mxGeometry>
        </mxCell>
        <mxCell id="f7I9c9mgRk5Hl_R-Q4D1-76" value="&lt;div&gt;Client 1&lt;/div&gt;" style="shape=umlActor;verticalLabelPosition=bottom;verticalAlign=top;html=1;outlineConnect=0;strokeWidth=2;" parent="1" vertex="1">
          <mxGeometry x="42.5" y="770" width="30" height="60" as="geometry" />
        </mxCell>
        <mxCell id="f7I9c9mgRk5Hl_R-Q4D1-77" value="&lt;div&gt;Client 2&lt;/div&gt;" style="shape=umlActor;verticalLabelPosition=bottom;verticalAlign=top;html=1;outlineConnect=0;strokeWidth=2;" parent="1" vertex="1">
          <mxGeometry x="42.5" y="1010" width="30" height="60" as="geometry" />
        </mxCell>
        <mxCell id="f7I9c9mgRk5Hl_R-Q4D1-78" value="Service" style="ellipse;shape=cloud;whiteSpace=wrap;html=1;strokeWidth=2;" parent="1" vertex="1">
          <mxGeometry x="20" y="890" width="70" height="60" as="geometry" />
        </mxCell>
        <mxCell id="f7I9c9mgRk5Hl_R-Q4D1-79" value="" style="endArrow=none;html=1;exitX=0.875;exitY=0.5;exitDx=0;exitDy=0;exitPerimeter=0;strokeWidth=2;" parent="1" edge="1">
          <mxGeometry width="50" height="50" relative="1" as="geometry">
            <mxPoint x="92.5" y="799" as="sourcePoint" />
            <mxPoint x="1035" y="799" as="targetPoint" />
          </mxGeometry>
        </mxCell>
        <mxCell id="f7I9c9mgRk5Hl_R-Q4D1-80" value="" style="endArrow=none;html=1;exitX=0.875;exitY=0.5;exitDx=0;exitDy=0;exitPerimeter=0;strokeWidth=2;" parent="1" edge="1">
          <mxGeometry width="50" height="50" relative="1" as="geometry">
            <mxPoint x="87.5" y="919.5" as="sourcePoint" />
            <mxPoint x="1030" y="919.5" as="targetPoint" />
          </mxGeometry>
        </mxCell>
        <mxCell id="f7I9c9mgRk5Hl_R-Q4D1-81" value="Delete" style="shape=callout;whiteSpace=wrap;html=1;perimeter=calloutPerimeter;size=20;position=0.5;base=10;strokeWidth=2;fillColor=#dae8fc;strokeColor=#6c8ebf;" parent="1" vertex="1">
          <mxGeometry x="120" y="760" width="80" height="40" as="geometry" />
        </mxCell>
        <mxCell id="f7I9c9mgRk5Hl_R-Q4D1-82" value="" style="endArrow=none;html=1;exitX=0.875;exitY=0.5;exitDx=0;exitDy=0;exitPerimeter=0;strokeWidth=2;" parent="1" edge="1">
          <mxGeometry width="50" height="50" relative="1" as="geometry">
            <mxPoint x="87.5" y="1039.5" as="sourcePoint" />
            <mxPoint x="1030" y="1039.5" as="targetPoint" />
          </mxGeometry>
        </mxCell>
        <mxCell id="f7I9c9mgRk5Hl_R-Q4D1-83" value="" style="shape=callout;whiteSpace=wrap;html=1;perimeter=calloutPerimeter;size=20;position=0.5;base=10;strokeWidth=2;rotation=-180;flipH=1;fillColor=#d5e8d4;strokeColor=#82b366;" parent="1" vertex="1">
          <mxGeometry x="200" y="1040" width="80" height="40" as="geometry" />
        </mxCell>
        <mxCell id="f7I9c9mgRk5Hl_R-Q4D1-84" value="Edit" style="text;html=1;align=center;verticalAlign=middle;resizable=0;points=[];autosize=1;strokeWidth=2;" parent="1" vertex="1">
          <mxGeometry x="220" y="1060" width="40" height="20" as="geometry" />
        </mxCell>
        <mxCell id="f7I9c9mgRk5Hl_R-Q4D1-86" value="Undo" style="shape=callout;whiteSpace=wrap;html=1;perimeter=calloutPerimeter;size=20;position=0.5;base=10;strokeWidth=2;fillColor=#ffe6cc;strokeColor=#d79b00;" parent="1" vertex="1">
          <mxGeometry x="400" y="760" width="80" height="40" as="geometry" />
        </mxCell>
        <mxCell id="f7I9c9mgRk5Hl_R-Q4D1-87" value="" style="endArrow=classic;html=1;exitX=0;exitY=0;exitDx=40;exitDy=40;exitPerimeter=0;fillColor=#ffe6cc;strokeColor=#d79b00;strokeWidth=2;" parent="1" edge="1">
          <mxGeometry width="50" height="50" relative="1" as="geometry">
            <mxPoint x="440" y="800" as="sourcePoint" />
            <mxPoint x="560" y="920" as="targetPoint" />
          </mxGeometry>
        </mxCell>
        <mxCell id="f7I9c9mgRk5Hl_R-Q4D1-88" value="" style="endArrow=classic;html=1;fillColor=#ffe6cc;strokeColor=#d79b00;strokeWidth=2;" parent="1" edge="1">
          <mxGeometry width="50" height="50" relative="1" as="geometry">
            <mxPoint x="560" y="920" as="sourcePoint" />
            <mxPoint x="680" y="800" as="targetPoint" />
          </mxGeometry>
        </mxCell>
        <mxCell id="f7I9c9mgRk5Hl_R-Q4D1-89" value="" style="endArrow=classic;html=1;exitX=0;exitY=0;exitDx=40;exitDy=40;exitPerimeter=0;fillColor=#ffe6cc;strokeColor=#d79b00;strokeWidth=2;" parent="1" edge="1">
          <mxGeometry width="50" height="50" relative="1" as="geometry">
            <mxPoint x="560" y="920" as="sourcePoint" />
            <mxPoint x="680" y="1040" as="targetPoint" />
          </mxGeometry>
        </mxCell>
        <mxCell id="f7I9c9mgRk5Hl_R-Q4D1-90" value="" style="endArrow=classic;html=1;exitX=0;exitY=0;exitDx=40;exitDy=40;exitPerimeter=0;fillColor=#dae8fc;strokeColor=#6c8ebf;strokeWidth=2;" parent="1" edge="1">
          <mxGeometry width="50" height="50" relative="1" as="geometry">
            <mxPoint x="160" y="800" as="sourcePoint" />
            <mxPoint x="280" y="920" as="targetPoint" />
          </mxGeometry>
        </mxCell>
        <mxCell id="f7I9c9mgRk5Hl_R-Q4D1-91" value="" style="endArrow=classic;html=1;fillColor=#dae8fc;strokeColor=#6c8ebf;strokeWidth=2;" parent="1" edge="1">
          <mxGeometry width="50" height="50" relative="1" as="geometry">
            <mxPoint x="280" y="920" as="sourcePoint" />
            <mxPoint x="400" y="800" as="targetPoint" />
          </mxGeometry>
        </mxCell>
        <mxCell id="f7I9c9mgRk5Hl_R-Q4D1-92" value="" style="endArrow=classic;html=1;exitX=0;exitY=0;exitDx=40;exitDy=40;exitPerimeter=0;fillColor=#dae8fc;strokeColor=#6c8ebf;strokeWidth=2;" parent="1" edge="1">
          <mxGeometry width="50" height="50" relative="1" as="geometry">
            <mxPoint x="280" y="920" as="sourcePoint" />
            <mxPoint x="400" y="1040" as="targetPoint" />
          </mxGeometry>
        </mxCell>
        <mxCell id="f7I9c9mgRk5Hl_R-Q4D1-93" value="" style="endArrow=classic;html=1;fillColor=#d5e8d4;strokeColor=#82b366;strokeWidth=2;" parent="1" edge="1">
          <mxGeometry width="50" height="50" relative="1" as="geometry">
            <mxPoint x="240" y="1040" as="sourcePoint" />
            <mxPoint x="360" y="920" as="targetPoint" />
          </mxGeometry>
        </mxCell>
        <mxCell id="f7I9c9mgRk5Hl_R-Q4D1-94" value="" style="endArrow=classic;html=1;fillColor=#d5e8d4;strokeColor=#82b366;strokeWidth=2;" parent="1" edge="1">
          <mxGeometry width="50" height="50" relative="1" as="geometry">
            <mxPoint x="360" y="920" as="sourcePoint" />
            <mxPoint x="480" y="800" as="targetPoint" />
          </mxGeometry>
        </mxCell>
        <mxCell id="f7I9c9mgRk5Hl_R-Q4D1-95" value="" style="endArrow=classic;html=1;exitX=0;exitY=0;exitDx=40;exitDy=40;exitPerimeter=0;fillColor=#d5e8d4;strokeColor=#82b366;strokeWidth=2;" parent="1" edge="1">
          <mxGeometry width="50" height="50" relative="1" as="geometry">
            <mxPoint x="360" y="920" as="sourcePoint" />
            <mxPoint x="480" y="1040" as="targetPoint" />
          </mxGeometry>
        </mxCell>
        <mxCell id="f7I9c9mgRk5Hl_R-Q4D1-112" value="" style="whiteSpace=wrap;html=1;fillColor=#dae8fc;strokeColor=#6c8ebf;strokeWidth=2;" parent="1" vertex="1">
          <mxGeometry x="400" y="-600" width="200" height="10" as="geometry" />
        </mxCell>
        <mxCell id="f7I9c9mgRk5Hl_R-Q4D1-113" value="" style="whiteSpace=wrap;html=1;fillColor=#dae8fc;strokeColor=#6c8ebf;strokeWidth=2;" parent="1" vertex="1">
          <mxGeometry x="280" y="-480" width="200" height="10" as="geometry" />
        </mxCell>
        <mxCell id="f7I9c9mgRk5Hl_R-Q4D1-114" value="&lt;div&gt;Client 1&lt;/div&gt;" style="shape=umlActor;verticalLabelPosition=bottom;verticalAlign=top;html=1;outlineConnect=0;strokeWidth=2;" parent="1" vertex="1">
          <mxGeometry x="42.5" y="-630" width="30" height="60" as="geometry" />
        </mxCell>
        <mxCell id="f7I9c9mgRk5Hl_R-Q4D1-115" value="&lt;div&gt;Client 2&lt;/div&gt;" style="shape=umlActor;verticalLabelPosition=bottom;verticalAlign=top;html=1;outlineConnect=0;strokeWidth=2;" parent="1" vertex="1">
          <mxGeometry x="42.5" y="-390" width="30" height="60" as="geometry" />
        </mxCell>
        <mxCell id="f7I9c9mgRk5Hl_R-Q4D1-116" value="Service" style="ellipse;shape=cloud;whiteSpace=wrap;html=1;strokeWidth=2;" parent="1" vertex="1">
          <mxGeometry x="20" y="-510" width="70" height="60" as="geometry" />
        </mxCell>
        <mxCell id="f7I9c9mgRk5Hl_R-Q4D1-119" value="Delete" style="shape=callout;whiteSpace=wrap;html=1;perimeter=calloutPerimeter;size=20;position=0.5;base=10;strokeWidth=2;fillColor=#dae8fc;strokeColor=#6c8ebf;" parent="1" vertex="1">
          <mxGeometry x="120" y="-640" width="80" height="40" as="geometry" />
        </mxCell>
        <mxCell id="f7I9c9mgRk5Hl_R-Q4D1-120" value="" style="endArrow=none;html=1;exitX=0.875;exitY=0.5;exitDx=0;exitDy=0;exitPerimeter=0;strokeWidth=2;" parent="1" edge="1">
          <mxGeometry width="50" height="50" relative="1" as="geometry">
            <mxPoint x="87.5" y="-360.5" as="sourcePoint" />
            <mxPoint x="1030" y="-360.5" as="targetPoint" />
          </mxGeometry>
        </mxCell>
        <mxCell id="f7I9c9mgRk5Hl_R-Q4D1-121" value="" style="shape=callout;whiteSpace=wrap;html=1;perimeter=calloutPerimeter;size=20;position=0.5;base=10;strokeWidth=2;rotation=-180;flipH=1;fillColor=#d5e8d4;strokeColor=#82b366;" parent="1" vertex="1">
          <mxGeometry x="80" y="-360" width="80" height="40" as="geometry" />
        </mxCell>
        <mxCell id="f7I9c9mgRk5Hl_R-Q4D1-122" value="Edit" style="text;html=1;align=center;verticalAlign=middle;resizable=0;points=[];autosize=1;strokeWidth=2;" parent="1" vertex="1">
          <mxGeometry x="100" y="-340" width="40" height="20" as="geometry" />
        </mxCell>
        <mxCell id="f7I9c9mgRk5Hl_R-Q4D1-124" value="Undo" style="shape=callout;whiteSpace=wrap;html=1;perimeter=calloutPerimeter;size=20;position=0.5;base=10;strokeWidth=2;fillColor=#ffe6cc;strokeColor=#d79b00;" parent="1" vertex="1">
          <mxGeometry x="280" y="-640" width="80" height="40" as="geometry" />
        </mxCell>
        <mxCell id="f7I9c9mgRk5Hl_R-Q4D1-125" value="" style="endArrow=classic;html=1;exitX=0;exitY=0;exitDx=40;exitDy=40;exitPerimeter=0;fillColor=#ffe6cc;strokeColor=#d79b00;strokeWidth=2;" parent="1" edge="1">
          <mxGeometry width="50" height="50" relative="1" as="geometry">
            <mxPoint x="320" y="-600" as="sourcePoint" />
            <mxPoint x="440" y="-480" as="targetPoint" />
          </mxGeometry>
        </mxCell>
        <mxCell id="f7I9c9mgRk5Hl_R-Q4D1-126" value="" style="endArrow=classic;html=1;fillColor=#ffe6cc;strokeColor=#d79b00;strokeWidth=2;" parent="1" edge="1">
          <mxGeometry width="50" height="50" relative="1" as="geometry">
            <mxPoint x="440" y="-480" as="sourcePoint" />
            <mxPoint x="560" y="-600" as="targetPoint" />
          </mxGeometry>
        </mxCell>
        <mxCell id="f7I9c9mgRk5Hl_R-Q4D1-127" value="" style="endArrow=classic;html=1;exitX=0;exitY=0;exitDx=40;exitDy=40;exitPerimeter=0;fillColor=#ffe6cc;strokeColor=#d79b00;strokeWidth=2;" parent="1" edge="1">
          <mxGeometry width="50" height="50" relative="1" as="geometry">
            <mxPoint x="440" y="-480" as="sourcePoint" />
            <mxPoint x="560" y="-360" as="targetPoint" />
          </mxGeometry>
        </mxCell>
        <mxCell id="f7I9c9mgRk5Hl_R-Q4D1-128" value="" style="endArrow=classic;html=1;exitX=0;exitY=0;exitDx=40;exitDy=40;exitPerimeter=0;fillColor=#dae8fc;strokeColor=#6c8ebf;strokeWidth=2;" parent="1" edge="1">
          <mxGeometry width="50" height="50" relative="1" as="geometry">
            <mxPoint x="160" y="-600" as="sourcePoint" />
            <mxPoint x="280" y="-480" as="targetPoint" />
          </mxGeometry>
        </mxCell>
        <mxCell id="f7I9c9mgRk5Hl_R-Q4D1-129" value="" style="endArrow=classic;html=1;fillColor=#dae8fc;strokeColor=#6c8ebf;strokeWidth=2;" parent="1" edge="1">
          <mxGeometry width="50" height="50" relative="1" as="geometry">
            <mxPoint x="280" y="-480" as="sourcePoint" />
            <mxPoint x="400" y="-600" as="targetPoint" />
          </mxGeometry>
        </mxCell>
        <mxCell id="f7I9c9mgRk5Hl_R-Q4D1-130" value="" style="endArrow=classic;html=1;exitX=0;exitY=0;exitDx=40;exitDy=40;exitPerimeter=0;fillColor=#dae8fc;strokeColor=#6c8ebf;strokeWidth=2;" parent="1" edge="1">
          <mxGeometry width="50" height="50" relative="1" as="geometry">
            <mxPoint x="280" y="-480" as="sourcePoint" />
            <mxPoint x="400" y="-360" as="targetPoint" />
          </mxGeometry>
        </mxCell>
        <mxCell id="f7I9c9mgRk5Hl_R-Q4D1-131" value="" style="endArrow=classic;html=1;fillColor=#d5e8d4;strokeColor=#82b366;strokeWidth=2;" parent="1" edge="1">
          <mxGeometry width="50" height="50" relative="1" as="geometry">
            <mxPoint x="120" y="-360" as="sourcePoint" />
            <mxPoint x="240" y="-480" as="targetPoint" />
          </mxGeometry>
        </mxCell>
        <mxCell id="f7I9c9mgRk5Hl_R-Q4D1-132" value="" style="endArrow=classic;html=1;fillColor=#d5e8d4;strokeColor=#82b366;strokeWidth=2;" parent="1" edge="1">
          <mxGeometry width="50" height="50" relative="1" as="geometry">
            <mxPoint x="240" y="-480" as="sourcePoint" />
            <mxPoint x="360" y="-600" as="targetPoint" />
          </mxGeometry>
        </mxCell>
        <mxCell id="f7I9c9mgRk5Hl_R-Q4D1-133" value="" style="endArrow=classic;html=1;exitX=0;exitY=0;exitDx=40;exitDy=40;exitPerimeter=0;fillColor=#d5e8d4;strokeColor=#82b366;strokeWidth=2;" parent="1" edge="1">
          <mxGeometry width="50" height="50" relative="1" as="geometry">
            <mxPoint x="240" y="-480" as="sourcePoint" />
            <mxPoint x="360" y="-360" as="targetPoint" />
          </mxGeometry>
        </mxCell>
        <mxCell id="f7I9c9mgRk5Hl_R-Q4D1-137" value="" style="whiteSpace=wrap;html=1;strokeColor=#6c8ebf;fillColor=#8A9FBF;strokeWidth=2;" parent="1" vertex="1">
          <mxGeometry x="520" y="1430" width="200" height="10" as="geometry" />
        </mxCell>
        <mxCell id="f7I9c9mgRk5Hl_R-Q4D1-138" value="" style="whiteSpace=wrap;html=1;fillColor=#dae8fc;strokeColor=#6c8ebf;strokeWidth=2;" parent="1" vertex="1">
          <mxGeometry x="400" y="1430" width="120" height="10" as="geometry" />
        </mxCell>
        <mxCell id="f7I9c9mgRk5Hl_R-Q4D1-139" value="" style="whiteSpace=wrap;html=1;fillColor=#dae8fc;strokeColor=#6c8ebf;strokeWidth=2;" parent="1" vertex="1">
          <mxGeometry x="280" y="1550" width="120" height="10" as="geometry" />
        </mxCell>
        <mxCell id="f7I9c9mgRk5Hl_R-Q4D1-140" value="&lt;div&gt;Client 1&lt;/div&gt;" style="shape=umlActor;verticalLabelPosition=bottom;verticalAlign=top;html=1;outlineConnect=0;strokeWidth=2;" parent="1" vertex="1">
          <mxGeometry x="42.5" y="1400" width="30" height="60" as="geometry" />
        </mxCell>
        <mxCell id="f7I9c9mgRk5Hl_R-Q4D1-141" value="&lt;div&gt;Client 2&lt;/div&gt;" style="shape=umlActor;verticalLabelPosition=bottom;verticalAlign=top;html=1;outlineConnect=0;strokeWidth=2;" parent="1" vertex="1">
          <mxGeometry x="42.5" y="1640" width="30" height="60" as="geometry" />
        </mxCell>
        <mxCell id="f7I9c9mgRk5Hl_R-Q4D1-142" value="Service" style="ellipse;shape=cloud;whiteSpace=wrap;html=1;strokeWidth=2;" parent="1" vertex="1">
          <mxGeometry x="20" y="1520" width="70" height="60" as="geometry" />
        </mxCell>
        <mxCell id="f7I9c9mgRk5Hl_R-Q4D1-143" value="" style="endArrow=none;html=1;exitX=0.875;exitY=0.5;exitDx=0;exitDy=0;exitPerimeter=0;strokeWidth=2;" parent="1" edge="1">
          <mxGeometry width="50" height="50" relative="1" as="geometry">
            <mxPoint x="92.5" y="1429" as="sourcePoint" />
            <mxPoint x="1035" y="1429" as="targetPoint" />
          </mxGeometry>
        </mxCell>
        <mxCell id="f7I9c9mgRk5Hl_R-Q4D1-144" value="" style="endArrow=none;html=1;exitX=0.875;exitY=0.5;exitDx=0;exitDy=0;exitPerimeter=0;strokeWidth=2;" parent="1" edge="1">
          <mxGeometry width="50" height="50" relative="1" as="geometry">
            <mxPoint x="87.5" y="1549.5" as="sourcePoint" />
            <mxPoint x="1030" y="1549.5" as="targetPoint" />
          </mxGeometry>
        </mxCell>
        <mxCell id="f7I9c9mgRk5Hl_R-Q4D1-145" value="Delete" style="shape=callout;whiteSpace=wrap;html=1;perimeter=calloutPerimeter;size=20;position=0.5;base=10;strokeWidth=2;fillColor=#dae8fc;strokeColor=#6c8ebf;" parent="1" vertex="1">
          <mxGeometry x="120" y="1390" width="80" height="40" as="geometry" />
        </mxCell>
        <mxCell id="f7I9c9mgRk5Hl_R-Q4D1-146" value="" style="endArrow=none;html=1;exitX=0.875;exitY=0.5;exitDx=0;exitDy=0;exitPerimeter=0;strokeWidth=2;" parent="1" edge="1">
          <mxGeometry width="50" height="50" relative="1" as="geometry">
            <mxPoint x="87.5" y="1669.5" as="sourcePoint" />
            <mxPoint x="1030" y="1669.5" as="targetPoint" />
          </mxGeometry>
        </mxCell>
        <mxCell id="f7I9c9mgRk5Hl_R-Q4D1-147" value="" style="shape=callout;whiteSpace=wrap;html=1;perimeter=calloutPerimeter;size=20;position=0.5;base=10;strokeWidth=2;rotation=-180;flipH=1;fillColor=#d5e8d4;strokeColor=#82b366;" parent="1" vertex="1">
          <mxGeometry x="200" y="1670" width="80" height="40" as="geometry" />
        </mxCell>
        <mxCell id="f7I9c9mgRk5Hl_R-Q4D1-148" value="Edit" style="text;html=1;align=center;verticalAlign=middle;resizable=0;points=[];autosize=1;strokeWidth=2;" parent="1" vertex="1">
          <mxGeometry x="220" y="1690" width="40" height="20" as="geometry" />
        </mxCell>
        <mxCell id="f7I9c9mgRk5Hl_R-Q4D1-150" value="Undo" style="shape=callout;whiteSpace=wrap;html=1;perimeter=calloutPerimeter;size=20;position=0.5;base=10;strokeWidth=2;fillColor=#ffe6cc;strokeColor=#d79b00;" parent="1" vertex="1">
          <mxGeometry x="520" y="1390" width="80" height="40" as="geometry" />
        </mxCell>
        <mxCell id="f7I9c9mgRk5Hl_R-Q4D1-151" value="" style="endArrow=classic;html=1;exitX=0;exitY=0;exitDx=40;exitDy=40;exitPerimeter=0;fillColor=#ffe6cc;strokeColor=#d79b00;strokeWidth=2;" parent="1" edge="1">
          <mxGeometry width="50" height="50" relative="1" as="geometry">
            <mxPoint x="560" y="1430" as="sourcePoint" />
            <mxPoint x="680" y="1550" as="targetPoint" />
          </mxGeometry>
        </mxCell>
        <mxCell id="f7I9c9mgRk5Hl_R-Q4D1-152" value="" style="endArrow=classic;html=1;fillColor=#ffe6cc;strokeColor=#d79b00;strokeWidth=2;" parent="1" edge="1">
          <mxGeometry width="50" height="50" relative="1" as="geometry">
            <mxPoint x="680" y="1550" as="sourcePoint" />
            <mxPoint x="800" y="1430" as="targetPoint" />
          </mxGeometry>
        </mxCell>
        <mxCell id="f7I9c9mgRk5Hl_R-Q4D1-153" value="" style="endArrow=classic;html=1;exitX=0;exitY=0;exitDx=40;exitDy=40;exitPerimeter=0;fillColor=#ffe6cc;strokeColor=#d79b00;strokeWidth=2;" parent="1" edge="1">
          <mxGeometry width="50" height="50" relative="1" as="geometry">
            <mxPoint x="680" y="1550" as="sourcePoint" />
            <mxPoint x="800" y="1670" as="targetPoint" />
          </mxGeometry>
        </mxCell>
        <mxCell id="f7I9c9mgRk5Hl_R-Q4D1-154" value="" style="endArrow=classic;html=1;exitX=0;exitY=0;exitDx=40;exitDy=40;exitPerimeter=0;fillColor=#dae8fc;strokeColor=#6c8ebf;strokeWidth=2;" parent="1" edge="1">
          <mxGeometry width="50" height="50" relative="1" as="geometry">
            <mxPoint x="160" y="1430" as="sourcePoint" />
            <mxPoint x="280" y="1550" as="targetPoint" />
          </mxGeometry>
        </mxCell>
        <mxCell id="f7I9c9mgRk5Hl_R-Q4D1-155" value="" style="endArrow=classic;html=1;fillColor=#dae8fc;strokeColor=#6c8ebf;strokeWidth=2;" parent="1" edge="1">
          <mxGeometry width="50" height="50" relative="1" as="geometry">
            <mxPoint x="280" y="1550" as="sourcePoint" />
            <mxPoint x="400" y="1430" as="targetPoint" />
          </mxGeometry>
        </mxCell>
        <mxCell id="f7I9c9mgRk5Hl_R-Q4D1-156" value="" style="endArrow=classic;html=1;exitX=0;exitY=0;exitDx=40;exitDy=40;exitPerimeter=0;fillColor=#dae8fc;strokeColor=#6c8ebf;strokeWidth=2;" parent="1" edge="1">
          <mxGeometry width="50" height="50" relative="1" as="geometry">
            <mxPoint x="280" y="1550" as="sourcePoint" />
            <mxPoint x="400" y="1670" as="targetPoint" />
          </mxGeometry>
        </mxCell>
        <mxCell id="f7I9c9mgRk5Hl_R-Q4D1-157" value="" style="endArrow=classic;html=1;fillColor=#d5e8d4;strokeColor=#82b366;strokeWidth=2;" parent="1" edge="1">
          <mxGeometry width="50" height="50" relative="1" as="geometry">
            <mxPoint x="240" y="1670" as="sourcePoint" />
            <mxPoint x="360" y="1550" as="targetPoint" />
          </mxGeometry>
        </mxCell>
        <mxCell id="f7I9c9mgRk5Hl_R-Q4D1-158" value="" style="endArrow=classic;html=1;fillColor=#d5e8d4;strokeColor=#82b366;strokeWidth=2;" parent="1" edge="1">
          <mxGeometry width="50" height="50" relative="1" as="geometry">
            <mxPoint x="360" y="1550" as="sourcePoint" />
            <mxPoint x="480" y="1430" as="targetPoint" />
          </mxGeometry>
        </mxCell>
        <mxCell id="f7I9c9mgRk5Hl_R-Q4D1-159" value="" style="endArrow=classic;html=1;exitX=0;exitY=0;exitDx=40;exitDy=40;exitPerimeter=0;fillColor=#d5e8d4;strokeColor=#82b366;strokeWidth=2;" parent="1" edge="1">
          <mxGeometry width="50" height="50" relative="1" as="geometry">
            <mxPoint x="360" y="1550" as="sourcePoint" />
            <mxPoint x="480" y="1670" as="targetPoint" />
          </mxGeometry>
        </mxCell>
        <mxCell id="f7I9c9mgRk5Hl_R-Q4D1-170" value="" style="group" parent="1" vertex="1" connectable="0">
          <mxGeometry x="160" y="1120" width="742.5" height="120" as="geometry" />
        </mxCell>
        <mxCell id="LO3xSl4bQVELb0Q1iKYm-67" value="" style="rounded=0;whiteSpace=wrap;html=1;strokeColor=#000000;strokeWidth=2;" parent="f7I9c9mgRk5Hl_R-Q4D1-170" vertex="1">
          <mxGeometry width="737.5" height="120" as="geometry" />
        </mxCell>
        <mxCell id="LO3xSl4bQVELb0Q1iKYm-55" value="" style="shape=callout;whiteSpace=wrap;html=1;perimeter=calloutPerimeter;size=20;position=0.5;base=10;strokeWidth=2;" parent="f7I9c9mgRk5Hl_R-Q4D1-170" vertex="1">
          <mxGeometry x="127.5" y="17.5" width="50" height="32.5" as="geometry" />
        </mxCell>
        <mxCell id="LO3xSl4bQVELb0Q1iKYm-56" value="An edit being conceived" style="text;html=1;align=center;verticalAlign=middle;resizable=0;points=[];autosize=1;strokeWidth=2;" parent="f7I9c9mgRk5Hl_R-Q4D1-170" vertex="1">
          <mxGeometry x="197.5" y="16.25" width="140" height="20" as="geometry" />
        </mxCell>
        <mxCell id="LO3xSl4bQVELb0Q1iKYm-65" value="An edit being transmitted" style="text;html=1;align=center;verticalAlign=middle;resizable=0;points=[];autosize=1;strokeWidth=2;" parent="f7I9c9mgRk5Hl_R-Q4D1-170" vertex="1">
          <mxGeometry x="452.5" y="16.25" width="150" height="20" as="geometry" />
        </mxCell>
        <mxCell id="f7I9c9mgRk5Hl_R-Q4D1-108" value="" style="endArrow=classic;html=1;exitX=0;exitY=0;exitDx=40;exitDy=40;exitPerimeter=0;strokeWidth=2;" parent="f7I9c9mgRk5Hl_R-Q4D1-170" edge="1">
          <mxGeometry x="82.5" width="50" height="50" as="geometry">
            <mxPoint x="397.5" y="26.25" as="sourcePoint" />
            <mxPoint x="437.5" y="26.25" as="targetPoint" />
          </mxGeometry>
        </mxCell>
        <mxCell id="f7I9c9mgRk5Hl_R-Q4D1-166" value="" style="whiteSpace=wrap;html=1;fillColor=#dae8fc;strokeColor=#6c8ebf;strokeWidth=2;" parent="f7I9c9mgRk5Hl_R-Q4D1-170" vertex="1">
          <mxGeometry x="17.5" y="65.625" width="47.5" height="8.75" as="geometry" />
        </mxCell>
        <mxCell id="f7I9c9mgRk5Hl_R-Q4D1-167" value="The span of the collaboration window that includes the deletion edit" style="text;html=1;align=left;verticalAlign=middle;resizable=0;points=[];autosize=1;strokeWidth=2;labelPosition=center;verticalLabelPosition=middle;" parent="f7I9c9mgRk5Hl_R-Q4D1-170" vertex="1">
          <mxGeometry x="82.5" y="60" width="370" height="20" as="geometry" />
        </mxCell>
        <mxCell id="f7I9c9mgRk5Hl_R-Q4D1-168" value="" style="whiteSpace=wrap;html=1;fillColor=#8A9FBF;strokeColor=#6c8ebf;strokeWidth=2;" parent="f7I9c9mgRk5Hl_R-Q4D1-170" vertex="1">
          <mxGeometry x="17.5" y="95.625" width="47.5" height="8.75" as="geometry" />
        </mxCell>
        <mxCell id="f7I9c9mgRk5Hl_R-Q4D1-169" value="The span of the collaboration window that includes the last edit in the collaboration window that includes the deletion edit" style="text;html=1;align=left;verticalAlign=middle;resizable=0;points=[];autosize=1;strokeWidth=2;labelPosition=center;verticalLabelPosition=middle;" parent="f7I9c9mgRk5Hl_R-Q4D1-170" vertex="1">
          <mxGeometry x="82.5" y="90" width="660" height="20" as="geometry" />
        </mxCell>
        <mxCell id="EwJIP_AWqAOa_qJiKoqo-1" value="" style="whiteSpace=wrap;html=1;fillColor=#dae8fc;strokeColor=#6c8ebf;strokeWidth=2;" parent="1" vertex="1">
          <mxGeometry x="400" y="2160" width="120" height="10" as="geometry" />
        </mxCell>
        <mxCell id="EwJIP_AWqAOa_qJiKoqo-2" value="" style="whiteSpace=wrap;html=1;strokeColor=#6c8ebf;fillColor=#8A9FBF;strokeWidth=2;" parent="1" vertex="1">
          <mxGeometry x="520" y="2160" width="320" height="10" as="geometry" />
        </mxCell>
        <mxCell id="EwJIP_AWqAOa_qJiKoqo-3" value="" style="whiteSpace=wrap;html=1;strokeColor=#6c8ebf;fillColor=#8A9FBF;strokeWidth=2;" parent="1" vertex="1">
          <mxGeometry x="400" y="2040" width="320" height="10" as="geometry" />
        </mxCell>
        <mxCell id="EwJIP_AWqAOa_qJiKoqo-4" value="" style="whiteSpace=wrap;html=1;strokeColor=#6c8ebf;fillColor=#8A9FBF;strokeWidth=2;" parent="1" vertex="1">
          <mxGeometry x="520" y="1920" width="320" height="10" as="geometry" />
        </mxCell>
        <mxCell id="EwJIP_AWqAOa_qJiKoqo-5" value="" style="whiteSpace=wrap;html=1;fillColor=#dae8fc;strokeColor=#6c8ebf;strokeWidth=2;" parent="1" vertex="1">
          <mxGeometry x="400" y="1920" width="120" height="10" as="geometry" />
        </mxCell>
        <mxCell id="EwJIP_AWqAOa_qJiKoqo-6" value="" style="whiteSpace=wrap;html=1;fillColor=#dae8fc;strokeColor=#6c8ebf;strokeWidth=2;" parent="1" vertex="1">
          <mxGeometry x="280" y="2040" width="120" height="10" as="geometry" />
        </mxCell>
        <mxCell id="EwJIP_AWqAOa_qJiKoqo-7" value="&lt;div&gt;Client 1&lt;/div&gt;" style="shape=umlActor;verticalLabelPosition=bottom;verticalAlign=top;html=1;outlineConnect=0;strokeWidth=2;" parent="1" vertex="1">
          <mxGeometry x="42.5" y="1890" width="30" height="60" as="geometry" />
        </mxCell>
        <mxCell id="EwJIP_AWqAOa_qJiKoqo-8" value="&lt;div&gt;Client 2&lt;/div&gt;" style="shape=umlActor;verticalLabelPosition=bottom;verticalAlign=top;html=1;outlineConnect=0;strokeWidth=2;" parent="1" vertex="1">
          <mxGeometry x="42.5" y="2130" width="30" height="60" as="geometry" />
        </mxCell>
        <mxCell id="EwJIP_AWqAOa_qJiKoqo-9" value="Service" style="ellipse;shape=cloud;whiteSpace=wrap;html=1;strokeWidth=2;" parent="1" vertex="1">
          <mxGeometry x="20" y="2010" width="70" height="60" as="geometry" />
        </mxCell>
        <mxCell id="EwJIP_AWqAOa_qJiKoqo-10" value="" style="endArrow=none;html=1;exitX=0.875;exitY=0.5;exitDx=0;exitDy=0;exitPerimeter=0;strokeWidth=2;" parent="1" edge="1">
          <mxGeometry width="50" height="50" relative="1" as="geometry">
            <mxPoint x="92.5" y="1919" as="sourcePoint" />
            <mxPoint x="1035" y="1919" as="targetPoint" />
          </mxGeometry>
        </mxCell>
        <mxCell id="EwJIP_AWqAOa_qJiKoqo-11" value="" style="endArrow=none;html=1;exitX=0.875;exitY=0.5;exitDx=0;exitDy=0;exitPerimeter=0;strokeWidth=2;" parent="1" edge="1">
          <mxGeometry width="50" height="50" relative="1" as="geometry">
            <mxPoint x="87.5" y="2039.5" as="sourcePoint" />
            <mxPoint x="1030" y="2039.5" as="targetPoint" />
          </mxGeometry>
        </mxCell>
        <mxCell id="EwJIP_AWqAOa_qJiKoqo-12" value="Delete" style="shape=callout;whiteSpace=wrap;html=1;perimeter=calloutPerimeter;size=20;position=0.5;base=10;strokeWidth=2;fillColor=#dae8fc;strokeColor=#6c8ebf;" parent="1" vertex="1">
          <mxGeometry x="120" y="1880" width="80" height="40" as="geometry" />
        </mxCell>
        <mxCell id="EwJIP_AWqAOa_qJiKoqo-13" value="" style="endArrow=none;html=1;exitX=0.875;exitY=0.5;exitDx=0;exitDy=0;exitPerimeter=0;strokeWidth=2;" parent="1" edge="1">
          <mxGeometry width="50" height="50" relative="1" as="geometry">
            <mxPoint x="87.5" y="2159.5" as="sourcePoint" />
            <mxPoint x="1030" y="2159.5" as="targetPoint" />
          </mxGeometry>
        </mxCell>
        <mxCell id="EwJIP_AWqAOa_qJiKoqo-14" value="" style="shape=callout;whiteSpace=wrap;html=1;perimeter=calloutPerimeter;size=20;position=0.5;base=10;strokeWidth=2;rotation=-180;flipH=1;fillColor=#d5e8d4;strokeColor=#82b366;" parent="1" vertex="1">
          <mxGeometry x="200" y="2160" width="80" height="40" as="geometry" />
        </mxCell>
        <mxCell id="EwJIP_AWqAOa_qJiKoqo-15" value="Edit" style="text;html=1;align=center;verticalAlign=middle;resizable=0;points=[];autosize=1;strokeWidth=2;" parent="1" vertex="1">
          <mxGeometry x="220" y="2180" width="40" height="20" as="geometry" />
        </mxCell>
        <mxCell id="EwJIP_AWqAOa_qJiKoqo-16" value="Undo" style="shape=callout;whiteSpace=wrap;html=1;perimeter=calloutPerimeter;size=20;position=0.5;base=10;strokeWidth=2;fillColor=#ffe6cc;strokeColor=#d79b00;" parent="1" vertex="1">
          <mxGeometry x="520" y="1880" width="80" height="40" as="geometry" />
        </mxCell>
        <mxCell id="EwJIP_AWqAOa_qJiKoqo-17" value="" style="endArrow=classic;html=1;exitX=0;exitY=0;exitDx=40;exitDy=40;exitPerimeter=0;fillColor=#ffe6cc;strokeColor=#d79b00;strokeWidth=2;" parent="1" edge="1">
          <mxGeometry width="50" height="50" relative="1" as="geometry">
            <mxPoint x="560" y="1920" as="sourcePoint" />
            <mxPoint x="680" y="2040" as="targetPoint" />
          </mxGeometry>
        </mxCell>
        <mxCell id="EwJIP_AWqAOa_qJiKoqo-18" value="" style="endArrow=classic;html=1;fillColor=#ffe6cc;strokeColor=#d79b00;strokeWidth=2;" parent="1" edge="1">
          <mxGeometry width="50" height="50" relative="1" as="geometry">
            <mxPoint x="680" y="2040" as="sourcePoint" />
            <mxPoint x="800" y="1920" as="targetPoint" />
          </mxGeometry>
        </mxCell>
        <mxCell id="EwJIP_AWqAOa_qJiKoqo-19" value="" style="endArrow=classic;html=1;exitX=0;exitY=0;exitDx=40;exitDy=40;exitPerimeter=0;fillColor=#ffe6cc;strokeColor=#d79b00;strokeWidth=2;" parent="1" edge="1">
          <mxGeometry width="50" height="50" relative="1" as="geometry">
            <mxPoint x="680" y="2040" as="sourcePoint" />
            <mxPoint x="800" y="2160" as="targetPoint" />
          </mxGeometry>
        </mxCell>
        <mxCell id="EwJIP_AWqAOa_qJiKoqo-20" value="" style="endArrow=classic;html=1;exitX=0;exitY=0;exitDx=40;exitDy=40;exitPerimeter=0;fillColor=#dae8fc;strokeColor=#6c8ebf;strokeWidth=2;" parent="1" edge="1">
          <mxGeometry width="50" height="50" relative="1" as="geometry">
            <mxPoint x="160" y="1920" as="sourcePoint" />
            <mxPoint x="280" y="2040" as="targetPoint" />
          </mxGeometry>
        </mxCell>
        <mxCell id="EwJIP_AWqAOa_qJiKoqo-21" value="" style="endArrow=classic;html=1;fillColor=#dae8fc;strokeColor=#6c8ebf;strokeWidth=2;" parent="1" edge="1">
          <mxGeometry width="50" height="50" relative="1" as="geometry">
            <mxPoint x="280" y="2040" as="sourcePoint" />
            <mxPoint x="400" y="1920" as="targetPoint" />
          </mxGeometry>
        </mxCell>
        <mxCell id="EwJIP_AWqAOa_qJiKoqo-22" value="" style="endArrow=classic;html=1;exitX=0;exitY=0;exitDx=40;exitDy=40;exitPerimeter=0;fillColor=#dae8fc;strokeColor=#6c8ebf;strokeWidth=2;" parent="1" edge="1">
          <mxGeometry width="50" height="50" relative="1" as="geometry">
            <mxPoint x="280" y="2040" as="sourcePoint" />
            <mxPoint x="400" y="2160" as="targetPoint" />
          </mxGeometry>
        </mxCell>
        <mxCell id="EwJIP_AWqAOa_qJiKoqo-23" value="" style="endArrow=classic;html=1;fillColor=#d5e8d4;strokeColor=#82b366;strokeWidth=2;" parent="1" edge="1">
          <mxGeometry width="50" height="50" relative="1" as="geometry">
            <mxPoint x="240" y="2160" as="sourcePoint" />
            <mxPoint x="360" y="2040" as="targetPoint" />
          </mxGeometry>
        </mxCell>
        <mxCell id="EwJIP_AWqAOa_qJiKoqo-24" value="" style="endArrow=classic;html=1;fillColor=#d5e8d4;strokeColor=#82b366;strokeWidth=2;" parent="1" edge="1">
          <mxGeometry width="50" height="50" relative="1" as="geometry">
            <mxPoint x="360" y="2040" as="sourcePoint" />
            <mxPoint x="480" y="1920" as="targetPoint" />
          </mxGeometry>
        </mxCell>
        <mxCell id="EwJIP_AWqAOa_qJiKoqo-25" value="" style="endArrow=classic;html=1;exitX=0;exitY=0;exitDx=40;exitDy=40;exitPerimeter=0;fillColor=#d5e8d4;strokeColor=#82b366;strokeWidth=2;" parent="1" edge="1">
          <mxGeometry width="50" height="50" relative="1" as="geometry">
            <mxPoint x="360" y="2040" as="sourcePoint" />
            <mxPoint x="480" y="2160" as="targetPoint" />
          </mxGeometry>
        </mxCell>
        <mxCell id="o9TvgWdVQLTUstWwkWGG-7" value="&lt;div&gt;Client 1&lt;/div&gt;" style="shape=umlActor;verticalLabelPosition=bottom;verticalAlign=top;html=1;outlineConnect=0;strokeWidth=2;" vertex="1" parent="1">
          <mxGeometry x="42.5" y="2270" width="30" height="60" as="geometry" />
        </mxCell>
        <mxCell id="o9TvgWdVQLTUstWwkWGG-8" value="&lt;div&gt;Client 2&lt;/div&gt;" style="shape=umlActor;verticalLabelPosition=bottom;verticalAlign=top;html=1;outlineConnect=0;strokeWidth=2;" vertex="1" parent="1">
          <mxGeometry x="42.5" y="2510" width="30" height="60" as="geometry" />
        </mxCell>
        <mxCell id="o9TvgWdVQLTUstWwkWGG-9" value="Service" style="ellipse;shape=cloud;whiteSpace=wrap;html=1;strokeWidth=2;" vertex="1" parent="1">
          <mxGeometry x="20" y="2390" width="70" height="60" as="geometry" />
        </mxCell>
        <mxCell id="o9TvgWdVQLTUstWwkWGG-10" value="" style="endArrow=none;html=1;exitX=0.875;exitY=0.5;exitDx=0;exitDy=0;exitPerimeter=0;strokeWidth=2;" edge="1" parent="1">
          <mxGeometry width="50" height="50" relative="1" as="geometry">
            <mxPoint x="92.5" y="2299" as="sourcePoint" />
            <mxPoint x="1035" y="2299" as="targetPoint" />
          </mxGeometry>
        </mxCell>
        <mxCell id="o9TvgWdVQLTUstWwkWGG-11" value="" style="endArrow=none;html=1;exitX=0.875;exitY=0.5;exitDx=0;exitDy=0;exitPerimeter=0;strokeWidth=2;" edge="1" parent="1">
          <mxGeometry width="50" height="50" relative="1" as="geometry">
            <mxPoint x="87.5" y="2419.5" as="sourcePoint" />
            <mxPoint x="1030" y="2419.5" as="targetPoint" />
          </mxGeometry>
        </mxCell>
        <mxCell id="o9TvgWdVQLTUstWwkWGG-12" value="Delete" style="shape=callout;whiteSpace=wrap;html=1;perimeter=calloutPerimeter;size=20;position=0.5;base=10;strokeWidth=2;fillColor=#dae8fc;strokeColor=#6c8ebf;" vertex="1" parent="1">
          <mxGeometry x="360" y="2260" width="80" height="40" as="geometry" />
        </mxCell>
        <mxCell id="o9TvgWdVQLTUstWwkWGG-13" value="" style="endArrow=none;html=1;exitX=0.875;exitY=0.5;exitDx=0;exitDy=0;exitPerimeter=0;strokeWidth=2;" edge="1" parent="1">
          <mxGeometry width="50" height="50" relative="1" as="geometry">
            <mxPoint x="87.5" y="2539.5" as="sourcePoint" />
            <mxPoint x="1030" y="2539.5" as="targetPoint" />
          </mxGeometry>
        </mxCell>
        <mxCell id="o9TvgWdVQLTUstWwkWGG-14" value="" style="shape=callout;whiteSpace=wrap;html=1;perimeter=calloutPerimeter;size=20;position=0.5;base=10;strokeWidth=2;rotation=-180;flipH=1;fillColor=#d5e8d4;strokeColor=#82b366;" vertex="1" parent="1">
          <mxGeometry x="80" y="2540" width="80" height="40" as="geometry" />
        </mxCell>
        <mxCell id="o9TvgWdVQLTUstWwkWGG-15" value="Edit" style="text;html=1;align=center;verticalAlign=middle;resizable=0;points=[];autosize=1;strokeWidth=2;" vertex="1" parent="1">
          <mxGeometry x="100" y="2560" width="40" height="20" as="geometry" />
        </mxCell>
        <mxCell id="o9TvgWdVQLTUstWwkWGG-16" value="Undo" style="shape=callout;whiteSpace=wrap;html=1;perimeter=calloutPerimeter;size=20;position=0.5;base=10;strokeWidth=2;fillColor=#dae8fc;strokeColor=#6c8ebf;" vertex="1" parent="1">
          <mxGeometry x="640" y="2260" width="80" height="40" as="geometry" />
        </mxCell>
        <mxCell id="o9TvgWdVQLTUstWwkWGG-17" value="" style="endArrow=classic;html=1;exitX=0;exitY=0;exitDx=40;exitDy=40;exitPerimeter=0;fillColor=#dae8fc;strokeColor=#6c8ebf;strokeWidth=2;" edge="1" parent="1">
          <mxGeometry width="50" height="50" relative="1" as="geometry">
            <mxPoint x="680" y="2300" as="sourcePoint" />
            <mxPoint x="800" y="2420" as="targetPoint" />
          </mxGeometry>
        </mxCell>
        <mxCell id="o9TvgWdVQLTUstWwkWGG-18" value="" style="endArrow=classic;html=1;fillColor=#dae8fc;strokeColor=#6c8ebf;strokeWidth=2;" edge="1" parent="1">
          <mxGeometry width="50" height="50" relative="1" as="geometry">
            <mxPoint x="800" y="2420" as="sourcePoint" />
            <mxPoint x="920" y="2300" as="targetPoint" />
          </mxGeometry>
        </mxCell>
        <mxCell id="o9TvgWdVQLTUstWwkWGG-19" value="" style="endArrow=classic;html=1;exitX=0;exitY=0;exitDx=40;exitDy=40;exitPerimeter=0;fillColor=#dae8fc;strokeColor=#6c8ebf;strokeWidth=2;" edge="1" parent="1">
          <mxGeometry width="50" height="50" relative="1" as="geometry">
            <mxPoint x="800" y="2420" as="sourcePoint" />
            <mxPoint x="920" y="2540" as="targetPoint" />
          </mxGeometry>
        </mxCell>
        <mxCell id="o9TvgWdVQLTUstWwkWGG-20" value="" style="endArrow=classic;html=1;exitX=0;exitY=0;exitDx=40;exitDy=40;exitPerimeter=0;fillColor=#dae8fc;strokeColor=#6c8ebf;strokeWidth=2;" edge="1" parent="1">
          <mxGeometry width="50" height="50" relative="1" as="geometry">
            <mxPoint x="400" y="2300" as="sourcePoint" />
            <mxPoint x="520" y="2420" as="targetPoint" />
          </mxGeometry>
        </mxCell>
        <mxCell id="o9TvgWdVQLTUstWwkWGG-21" value="" style="endArrow=classic;html=1;fillColor=#dae8fc;strokeColor=#6c8ebf;strokeWidth=2;" edge="1" parent="1">
          <mxGeometry width="50" height="50" relative="1" as="geometry">
            <mxPoint x="520" y="2420" as="sourcePoint" />
            <mxPoint x="640" y="2300" as="targetPoint" />
          </mxGeometry>
        </mxCell>
        <mxCell id="o9TvgWdVQLTUstWwkWGG-22" value="" style="endArrow=classic;html=1;exitX=0;exitY=0;exitDx=40;exitDy=40;exitPerimeter=0;fillColor=#dae8fc;strokeColor=#6c8ebf;strokeWidth=2;" edge="1" parent="1">
          <mxGeometry width="50" height="50" relative="1" as="geometry">
            <mxPoint x="520" y="2420" as="sourcePoint" />
            <mxPoint x="640" y="2540" as="targetPoint" />
          </mxGeometry>
        </mxCell>
        <mxCell id="o9TvgWdVQLTUstWwkWGG-23" value="" style="endArrow=classic;html=1;fillColor=#d5e8d4;strokeColor=#82b366;strokeWidth=2;" edge="1" parent="1">
          <mxGeometry width="50" height="50" relative="1" as="geometry">
            <mxPoint x="120" y="2540" as="sourcePoint" />
            <mxPoint x="240" y="2420" as="targetPoint" />
          </mxGeometry>
        </mxCell>
        <mxCell id="o9TvgWdVQLTUstWwkWGG-24" value="" style="endArrow=classic;html=1;fillColor=#d5e8d4;strokeColor=#82b366;strokeWidth=2;" edge="1" parent="1">
          <mxGeometry width="50" height="50" relative="1" as="geometry">
            <mxPoint x="240" y="2420" as="sourcePoint" />
            <mxPoint x="360" y="2300" as="targetPoint" />
          </mxGeometry>
        </mxCell>
        <mxCell id="o9TvgWdVQLTUstWwkWGG-25" value="" style="endArrow=classic;html=1;exitX=0;exitY=0;exitDx=40;exitDy=40;exitPerimeter=0;fillColor=#d5e8d4;strokeColor=#82b366;strokeWidth=2;" edge="1" parent="1">
          <mxGeometry width="50" height="50" relative="1" as="geometry">
            <mxPoint x="240" y="2420" as="sourcePoint" />
            <mxPoint x="360" y="2540" as="targetPoint" />
          </mxGeometry>
        </mxCell>
        <mxCell id="o9TvgWdVQLTUstWwkWGG-30" value="" style="shape=callout;whiteSpace=wrap;html=1;perimeter=calloutPerimeter;size=20;position=0.5;base=10;strokeWidth=2;rotation=-180;flipH=1;fillColor=#d5e8d4;strokeColor=#82b366;" vertex="1" parent="1">
          <mxGeometry x="720" y="2540" width="80" height="40" as="geometry" />
        </mxCell>
        <mxCell id="o9TvgWdVQLTUstWwkWGG-31" value="Undo" style="text;html=1;align=center;verticalAlign=middle;resizable=0;points=[];autosize=1;strokeWidth=2;" vertex="1" parent="1">
          <mxGeometry x="735" y="2555" width="50" height="30" as="geometry" />
        </mxCell>
        <mxCell id="o9TvgWdVQLTUstWwkWGG-32" value="" style="endArrow=classic;html=1;exitX=0;exitY=0;exitDx=40;exitDy=40;exitPerimeter=0;fillColor=#d5e8d4;strokeColor=#82b366;strokeWidth=2;" edge="1" parent="1">
          <mxGeometry width="50" height="50" relative="1" as="geometry">
            <mxPoint x="880" y="2420" as="sourcePoint" />
            <mxPoint x="1000" y="2540" as="targetPoint" />
          </mxGeometry>
        </mxCell>
        <mxCell id="o9TvgWdVQLTUstWwkWGG-33" value="" style="endArrow=classic;html=1;fillColor=#d5e8d4;strokeColor=#82b366;strokeWidth=2;" edge="1" parent="1">
          <mxGeometry width="50" height="50" relative="1" as="geometry">
            <mxPoint x="760" y="2540" as="sourcePoint" />
            <mxPoint x="880" y="2420" as="targetPoint" />
          </mxGeometry>
        </mxCell>
        <mxCell id="o9TvgWdVQLTUstWwkWGG-34" value="" style="endArrow=classic;html=1;fillColor=#d5e8d4;strokeColor=#82b366;strokeWidth=2;" edge="1" parent="1">
          <mxGeometry width="50" height="50" relative="1" as="geometry">
            <mxPoint x="880" y="2420" as="sourcePoint" />
            <mxPoint x="1000" y="2300" as="targetPoint" />
          </mxGeometry>
        </mxCell>
      </root>
    </mxGraphModel>
  </diagram>
</mxfile>
